<svg width="20" height="20" viewBox="0 0 20 20" fill="none" xmlns="http://www.w3.org/2000/svg">
<path fill-rule="evenodd" clip-rule="evenodd" d="M20 10C20 15.5228 15.5228 20 10 20C4.47715 20 0 15.5228 0 10C0 4.47715 4.47715 0 10 0C15.5228 0 20 4.47715 20 10ZM16.056 15.2275C17.062 14.0631 17.7379 12.6054 17.9381 11H11.8284L16.056 15.2275ZM14.5683 16.5683C13.2731 17.4708 11.6983 18 10 18C5.58172 18 2 14.4183 2 10C2 5.92038 5.05369 2.55399 9 2.06189V10.3787C9 10.7765 9.15804 11.158 9.43934 11.4393L14.5683 16.5683ZM11 9H17.9381C17.4869 5.38128 14.6187 2.51314 11 2.06189V9Z" fill="black"/>
</svg>
